<?xml version="1.0" encoding="utf-8"?>
<!-- Generator: Adobe Illustrator 16.0.0, SVG Export Plug-In . SVG Version: 6.00 Build 0)  -->
<!DOCTYPE svg PUBLIC "-//W3C//DTD SVG 1.1//EN" "http://www.w3.org/Graphics/SVG/1.1/DTD/svg11.dtd">
<svg version="1.1" xmlns="http://www.w3.org/2000/svg" xmlns:xlink="http://www.w3.org/1999/xlink" x="0px" y="0px"
	 width="69.549px" height="73.951px" viewBox="0 0 69.549 73.951" enable-background="new 0 0 69.549 73.951" xml:space="preserve">
<symbol  id="Grime_Vector_Pack_04" viewBox="-81.324 -86.472 162.648 172.943">
	<path fill-rule="evenodd" clip-rule="evenodd" d="M-65.249,71.752c4.65-2.938,9.914,1.28,10.392,5.432
		c-0.75,8.478-11.876,7.501-12.752,0.473C-67.794,76.184-67.105,72.927-65.249,71.752z M-22.75,56.86
		c0.604,0.025,1.125,0.134,1.417,0.472C-21.747,57.91-22.679,57.812-22.75,56.86z M-30.072,55.207
		c-1.854,0.045-2.356-1.265-3.779-1.652C-32.522,53.149-30.456,53.896-30.072,55.207z M-81.324,43.873
		c0.516-0.823,1.389-1.288,2.834-1.18C-77.5,43.979-81.034,46.097-81.324,43.873z M-1.021,19.08c-0.64,0.543-1.54,0.822-2.835,0.708
		c-0.843-2.373-3.06-4.34-3.779-6.14c-1.04-2.6-1.319-8.164,0.238-9.681C-1.687,5.983-0.684,12.474-1.021,19.08z M-28.891,12.939
		c1.222-0.155,1.455,0.578,2.362,1.182v1.652C-29.292,18.942-32.185,13.36-28.891,12.939z M-67.625-10.673
		c0.176,0.1,0.478,1.373-0.473,1.416C-67.955-9.743-68.479-10.897-67.625-10.673z M-55.343-10.437v0.708
		c-0.667-0.195-0.612,0.333-1.182,0.235C-56.707-10.413-55.744-10.809-55.343-10.437z M-76.363-26.966
		c0.277,0.035,0.67-0.041,0.707,0.236c0.087,2.045,0.229,4.143-1.416,5.431c0.928,0.219,0.596-0.821,1.652-0.473
		c-0.004,1.427-0.938,2.041-2.125,1.653c-0.19,1.069-1.423,1.096-0.944,2.833h-0.709c0.025-5.785,1.169-12.738,3.307-18.417
		C-73.015-34.626-76.271-29.56-76.363-26.966z M49.286-23.424c-0.589,0.037-0.731-0.371-1.182-0.474
		c-0.053-0.445,0.267-0.52,0.237-0.943h0.944C49.608-24.539,49.608-23.727,49.286-23.424z M54.718-31.453
		c-0.303-0.311-0.303-0.871,0-1.182h0.946C55.841-31.748,55.396-31.482,54.718-31.453z M-73.293-39.482
		c0.213,1.301-0.905,2.506-1.417,3.779c-0.043-0.35-0.571-0.217-0.945-0.236c1.062-2.242,0.987-5.625,2.598-7.32
		c0.901-5.082,4.886-9.127,7.086-13.695c1.875-1.273,2.764-3.533,4.723-4.723c-0.254,1.949-2.05,2.357-2.126,4.486
		C-68.069-52.677-69.702-45.099-73.293-39.482z M32.045-36.175c-0.792,0.561-2.236,0.141-2.126-0.945
		C30.492-38.294,32.205-37.677,32.045-36.175z M64.402-50.816c2.122-0.232,3.483,0.295,4.487,1.18
		C67.639-48.787,65.275-49.833,64.402-50.816z M19.999-73.011c0.065-0.504,1.202-1.135,1.417-0.709
		C20.839-73.589,20.912-72.806,19.999-73.011z M-1.021-75.609c0.998-0.867,2.232,0.707,1.417,1.652
		C-0.741-73.843-0.728-74.88-1.021-75.609z M79.046-0.283c4.18,5.488,1.587,13.978,0.235,21.252
		c-0.985,5.302-3.391,10.258-4.252,14.64c-0.39,0.634-1.289,0.759-1.653,1.417c-2.812,10.647-8.491,18.428-15.352,25.03
		c-1.521-0.303-2.109-0.083-3.307-0.709c-0.209,0.42-0.659,0.601-0.473,1.418c-1.084-0.105-2.141-0.498-2.125,0.944
		c1.365-0.1,2.189-0.2,3.779-0.474c-0.544,0.75-0.758,0.602-0.474,1.889C45.417,75.979,29.521,83.629,12.677,85.433
		c-7.19,1.556-14.654,1.131-21.729,0.236c-2.946-0.372-5.51-2.371-8.739-1.89c-6.18-2.558-13.019-4.458-17.949-8.264
		c-0.645-0.021-0.475,0.394-0.945,0c-2.997-2.436-6.921-3.944-9.447-6.85c-5.473-3.343-9.354-8.278-14.171-12.277
		c-0.141-0.753,0.443-0.729,0-1.182c-2.902-1.245-2.958-3.931-4.488-6.376c0.614-0.095,0.683-0.733,0.946-1.181
		c-2.816-3.037-2.463-10.14-7.322-10.389c2.511-2.837-0.162-6.583-2.126-8.737c0.876-1.045-0.336-2.016-0.708-2.597
		c0.287-1.843-0.84-3.059-0.237-4.487c-1.356-3.235-4.563-4.651-3.777-8.264c-0.722-0.171-0.862,0.239-1.417,0.236
		c-0.139-0.491-0.454-0.806-0.944-0.945C-81,8.028-80.704,2.26-80.616-3.354c0.042-2.623,0.801-4.979,0.945-7.319
		c0.135-2.179-0.874-4.85,1.181-6.141c0.67-0.041-0.286,1.546,0.708,1.183c0.583-0.204,0.866-0.709,0.944-1.417
		c0.097-1.041-1.131-0.759-0.708-2.126c1.938-0.282,2.203,1.948,4.015,2.834c-0.212,0.69-0.212,0.725,0,1.417
		c0.729,0.779,1.364,0.197,1.89,1.181c-1.018-0.26-1.099,0.177-1.654,0.236c0.8,1.676,1.473,3.797,3.544,3.541
		c0.212,1.114-1.312,0.222-0.709,0.944c0.158-0.651,0.814,1.081,0,0.235c-0.173,0.731,1.4,1.744,2.599,1.89
		c-0.242,0.229-0.479,0.467-0.71,0.709c1.305,3.275-2.682,9.018,0.474,10.862c0.013,5.219-1.362,8.615-0.237,14.404
		c-0.063,0.801-1.217,0.515-1.181,1.415c0.224,0.723,1.149,0.741,1.181,1.653c1.312,3.667,1.174,6.847,1.653,10.391
		c0.5,3.696,3.904,6.247,3.307,10.39c1.562,0.989,2.385,3.6,2.363,5.431c1.77-0.438,3.864,0.225,4.487,1.653
		c-0.149,1.11-1.105,1.416-1.182,2.597c2.202,4.253,6.41,6.502,8.503,10.863c1.489-0.229,1.462,1.057,2.125,1.651
		c10.99,8.162,26.793,13.835,43.695,12.753c0.368-0.34,0.82-0.596,0.944-1.182c1.504-0.306,2.836-0.784,4.486-0.944
		c2.031-2.16,6.033-2.231,8.975-3.541c3.978-1.771,8.485-4.133,12.52-5.669c5.687-2.164,12.039-4.223,16.06-7.792
		c4.589-4.071,5.843-10.165,8.503-15.82c1.075-2.285,2.369-4.224,3.309-6.612c-1.265,0.784-2.451,1.644-3.071,3.07
		c-0.724-0.172-0.695,0.407-1.418,0.236c-1.211,1.857-3.105,3.034-5.433,3.778c-1.487,2.426-4.995,3.075-7.557,4.249
		c-1.999,0.916-3.463,3.512-5.67,3.543c0.029-1.385,1.526-1.344,1.89-1.181c0.113-0.744-0.725-0.535-0.472-1.416
		c0.925-1.371,2.247-1.834,3.306-3.07c0.496-0.578,0.598-1.642,1.183-2.361c2.123-2.614,5.747-4.071,7.794-6.611
		c1.113-1.385,1.729-3.077,3.069-4.251c1.031-0.903,2.326-1.118,3.308-1.889c1.955-1.541,3.17-4.57,5.196-5.903
		c1.779-2.864,3.917-5.371,6.849-7.084c0.519-1.212,0.983-2.685,0.236-4.014c-2.437,1.342-3.123,4.433-5.197,6.139
		c-2.316,4.609-6.821,7.033-10.156,10.626c-0.556-0.006-0.694,0.407-1.416,0.236c-4.062,4.048-9.843,7.629-16.533,8.265
		c2.308-3.204,6.199-4.823,9.447-7.084c0.139-2.144,2.202-2.365,3.779-3.07c0.053-0.446-0.267-0.521-0.236-0.944
		c6.102-5.313,10.244-12.585,15.825-18.417c0.971-3.015,5.439-8.079,5.432-11.571c-0.005-1.514-1.456-3.272-1.889-5.196
		c-0.286-1.259-0.346-2.617-0.474-3.776c-0.17-1.556-0.598-2.931-0.709-4.25c-0.245-2.909,1.319-5.728,1.183-8.501
		c-0.333-6.701-5.17-10.736-6.851-15.35c-4.346-3.131-6.853-8.104-11.81-10.625c-0.09-0.775-0.69-1.041-0.944-1.652
		c-5.214-1.943-8.08-5.848-14.879-5.668c-0.709-0.865-1.489-1.66-2.599-2.125c-2.457,0.611-4.568-1.178-5.904-1.654
		c-1.941-0.689-5.851-0.473-7.794-0.709c-8.041-0.967-18.031,0.676-25.272,2.6c-1.95,0.518-4.064,1.863-5.432,2.359
		c-3.12,1.139-5.575,0.398-6.613,3.07c-0.847-0.086-0.866-0.633-1.654-0.236c-2.884,2.098-6.169,3.883-9.211,5.195
		c-2.616,5.021-8.259,7.012-10.864,12.045c-5.526,3.131-7.486,9.83-11.81,14.167c-1.264-1.282,1.384-4.303-0.472-5.903
		c1-2.344,1.899-6.504,1.417-9.918c1.843-0.824,2.811-3.891,0.471-4.721c-0.112-1.855,2.009-4.262,1.655-6.379
		c1.382-0.383,1.954,0.076,2.362,1.182c0.956-1.211,0.975-3.469,1.652-4.959c1.281-0.256,1.023,1.025,2.125,0.945
		c0.409-0.771,1.278-1.084,2.125-1.418c-0.491-1.75,1.158-1.361,1.654-2.125c-0.279-0.115-0.537-0.252-0.708-0.471
		c1.594,0.82,1.38-1.271,1.89-1.891c1.052-1.281,3.793-2.123,3.306-4.486c1.817,0.48,1.298,1.656,2.362,2.125
		c0.928-1.676,1.773-1.121,3.543-2.598c0.371,0.896,1.584,2.188,1.417,2.834c-0.022-1.033-1.152,0.244-1.18,0.709
		c1.059,2.291,0.155,4.641,0.471,6.611c1.958-1.033,2.244-3.738,3.779-5.195c-0.172-1.615-1.588-2.551-1.653-4.486
		c1.081-1.055,2.601-2.082,4.487-1.652c2.166-1.219,2.467-4.301,3.543-6.611c1.125-0.088,1.292-0.08,2.361-0.473
		c-0.031-0.582-0.036-1.139,0.235-1.416c2.597-0.328,3.303,1.736,5.669,0.943c3.696,3.643,9.134,1.395,14.17,2.125
		c0.269,1.842,1.574,1.365,3.07,2.125c0.456-0.754-0.139-1.189,0.236-2.125c0.324-0.463,1.425-0.15,1.418-0.943
		c1.606,0.611,3.497,1.959,1.889,2.596c1.959,0.559,3.094,1.23,4.96,1.418c0.349-1.035,1.133-0.721,0.709-2.125
		c3.379,0.17,5.683,0.312,8.267,0.943c0.371-0.416,0.066-1.508,0.708-1.652c1.567-0.68,1.94,1.395,4.016,0.945
		c0.384-0.453,0.407-1.979-0.236-2.125c1.404-0.979,2.316,0.234,4.251,0c0.501,0.363,1.053,0.68,1.654,0.943
		c5.188,0.201,7.761,3.357,11.1,5.195c1.334,0.734,2.559,1.277,3.543,2.125c7.252,6.25,12.956,14.768,19.604,21.488
		c1.078,2.619,3.268,4.133,4.959,6.141c0.696-0.154,0.955-1.525,1.653-0.945c1.855,1.148,0.21,6.043,3.07,5.666
		c2.332-0.307,1.396-4.297,1.653-6.848c0.146-1.443,0.948-2.65,0.944-4.014c-0.006-1.906-0.959-3.338,0.237-4.25
		c2.226,1.197,2.86,4.307,3.306,6.611c1.201,6.225,0.919,13.67,1.417,20.071c0.046,0.598,0.466,1.312,0.472,1.889
		c0.016,1.309-0.699,2.474-0.709,3.778C76.891-8.663,81.433-4.893,79.046-0.283z M-56.998-45.148
		c-0.836,0.127-0.58-0.836-1.416-0.709c-0.637,0.539-0.457,1.193-0.709,1.654c0.405,0.307,1.332-0.146,2.125,0.234
		C-57.163-44.695-57.163-44.421-56.998-45.148z M-37.629-52.941c-0.494,0.137-0.675,0.586-1.417,0.473
		c-0.054,0.42,0.237,1.184-0.472,0.943c0.779,0.777-0.635,0.564-0.474,1.418c0.848,0.139,1.144-0.273,1.655-0.473
		C-38.872-51.537-37.446-51.234-37.629-52.941z M-15.193-67.109C-16.529-63.291-11.645-66.365-15.193-67.109L-15.193-67.109z
		 M-10.705-67.109c0.02,0.336,0.038,0.668-0.237,0.709c0.062,0.553,1.037,0.135,1.182,0C-9.965-66.748-10.114-67.15-10.705-67.109z
		 M-65.5-19.41h0.945c-0.054,0.446,0.266,0.521,0.235,0.944c-0.325-0.01-0.518,0.111-0.709,0.236
		c-0.07-0.464,0.319-0.469,0.474-0.708C-64.701-19.265-65.464-18.974-65.5-19.41z M-33.615-81.75
		c-0.537,0.172-1.207,0.211-1.654,0.473c-4.936,3.932-10.613,5.713-14.644,10.391c-4.313,1.131-5.386,6.715-9.919,6.848
		c1.855-2.297,3.353-5.115,5.668-6.848c0.61-0.455,1.464-0.451,2.127-0.945c1.215-0.908,2.079-2.42,3.305-3.305
		c0.676-0.488,1.636-0.967,2.363-1.418c4.124-2.561,9.341-6.141,13.934-7.084c0.251-0.01,0.601,0.111,0.236,0.236
		C-32.768-82.949-33.135-82.292-33.615-81.75z M-29.364-83.875c-0.93-0.379-1.615,0.465-1.889-0.473
		c2.287,0.023,4.357-2.055,7.322-2.125C-24.592-84.457-27.993-85.181-29.364-83.875z"/>
</symbol>
<g id="Layer_1">
</g>
<g id="Layer_3">
</g>
<g id="Layer_2">
</g>
<g id="Layer_4">
	
		<use xlink:href="#Grime_Vector_Pack_04"  width="162.648" height="172.943" x="-81.324" y="-86.472" transform="matrix(0.4276 0 0 -0.4276 34.7744 36.9751)" overflow="visible"/>
</g>
<g id="Layer_5">
</g>
<g id="Layer_7">
</g>
<g id="Layer_6" display="none">
</g>
<g id="Layer_8">
</g>
</svg>
